<svg xmlns="http://www.w3.org/2000/svg" viewBox="0 0 460 460">
  <path d="M344.75 431H116.02c-46.1 0-83.47-37.37-83.47-83.47V109.47c0-46.1 37.37-83.47 83.47-83.47h228.72c46.1 0 83.47 37.37 83.47 83.47v238.06c.01 46.1-37.36 83.47-83.46 83.47z" fill="#fff" stroke="#000" stroke-width="14" stroke-linecap="round" stroke-miterlimit="10"/>
  <path d="M245.28 117.8V200c0 7.78 6.31 14.09 14.09 14.09h77.98c7.78 0 14.09 6.31 14.09 14.09s-6.31 14.09-14.09 14.09h-77.98c-7.78 0-14.09 6.31-14.09 14.09v83.14c0 7.78-6.31 14.09-14.09 14.09h-1.88c-7.78 0-14.09-6.31-14.09-14.09v-83.14c0-7.78-6.31-14.09-14.09-14.09h-77.98c-7.78 0-14.09-6.31-14.09-14.09s6.31-14.09 14.09-14.09h77.98c7.78 0 14.09-6.31 14.09-14.09v-82.2c0-7.78 6.31-14.09 14.09-14.09h1.88c7.78 0 14.09 6.31 14.09 14.09z"/>
</svg>
