<svg viewBox="0 0 1000 1000" xmlns="http://www.w3.org/2000/svg"><g fill="none" stroke="#000" stroke-miterlimit="10" stroke-width="14"><path d="m219.5 396.5s5-31 19-46l-38-74s-6-13 0-20c0 0 28-46 75-76 0 0 12-4 20 0l73 38s9-9 49-20l25-80s2-11 17-14c0 0 49-8 97-1 0 0 15 4 19 14l27 80s39 13 48 20l73-37s8-4 22 0c0 0 56 39 74 76 0 0 4 13 0 19l-38 73s19 33 19 48l81 27s14 4 15 21c0 0 6 44 0 92 0 0-5 19-15 20l-81 26s-4 25-19 47l38 75s4 10 0 19c0 0-16 36-72 73 0 0-7 6-23 3l-74-39s-15 14-48 20l-26 81s-4 12-18 14c0 0-54 11-100 0 0 0-12-6-15-14s-25-79-25-79-33-8-49-22l-72 38s-12 6-22 0c0 0-29-9-75-75 0 0-5-9 1-18l37-74s-16-23-19-49l-82-26s-12-6-14-18c0 0-8-42 0-94 0 0 0-12 15-20z"/><path d="m315.5 490.25s0-183.76 195-195.75c0 0 181-3.99 195 195.75 0 0-1 183.76-196 194.75 0 0-182-1-194-194.75z"/><circle cx="510" cy="490" r="145.5"/><circle cx="510.25" cy="490" r="60.25"/></g></svg>