<svg version="1.1" id="Layer_2" xmlns="http://www.w3.org/2000/svg" x="0" y="0" viewBox="0 0 460 460" xml:space="preserve">
  <style>
    .st0{fill:red;stroke:#000;stroke-width:20;stroke-linecap:round;stroke-linejoin:round;stroke-miterlimit:10}
  </style>
  <path class="st0" d="M111.62 395.17c-180.37-136.04 83.99-271.95-1.25-343.26 24.58 6.67 57.25 43.44 57.25 43.44 40.44-26.07 12.94-71.82 12.94-71.82 25.05 8.44 60.93 50.05 60.93 50.05 83.06-38.15 82.58 8.52 98.03 60.94 40.51 2.39 69.37 24.99 69.37 24.99-39.71-16.86-41.08 24.51-57.06 41.93 38.4 8.65 67.26 31.26 67.26 31.26-64.03-15.72-59.66 24.82-82.71 55.31-63.08 132.38-143.02 148.47-219.79 111.52l-4.97-4.36zM167.61 95.35s139.28 129.57 21.75 320.66M231.66 220.49s48.82-30.22 120.16-19.05M273.23 204.57s4.15-100.45-31.75-131M270.83 150.61s55.11-19.37 68.68-16.1"/>
</svg>
